<mxfile host="app.diagrams.net" modified="2023-07-12T10:45:22.684Z" agent="Mozilla/5.0 (Windows NT 10.0; Win64; x64) AppleWebKit/537.36 (KHTML, like Gecko) Chrome/114.0.0.0 Safari/537.36" etag="DX_Uu1VrkK-zvzSgCWzW" version="21.6.1" type="device" pages="11">
  <diagram name="Page-1" id="tqiy0FMx-Nvn4FNOH9NO">
    <mxGraphModel dx="2261" dy="756" grid="1" gridSize="10" guides="1" tooltips="1" connect="1" arrows="1" fold="1" page="1" pageScale="1" pageWidth="827" pageHeight="1169" math="0" shadow="0">
      <root>
        <mxCell id="0" />
        <mxCell id="1" parent="0" />
        <mxCell id="t1getZcMxZ7yQV3_9JbH-9" value="" style="group" parent="1" vertex="1" connectable="0">
          <mxGeometry x="-650" y="110" width="300" height="550" as="geometry" />
        </mxCell>
        <mxCell id="t1getZcMxZ7yQV3_9JbH-4" value="&lt;h1&gt;Xamarin.Android&lt;/h1&gt;" style="text;html=1;strokeColor=none;fillColor=none;spacing=5;spacingTop=-20;whiteSpace=wrap;overflow=hidden;rounded=0;align=center;" parent="t1getZcMxZ7yQV3_9JbH-9" vertex="1">
          <mxGeometry x="40" y="59.99999999999999" width="220" height="43.14" as="geometry" />
        </mxCell>
        <mxCell id="t1getZcMxZ7yQV3_9JbH-16" style="edgeStyle=orthogonalEdgeStyle;rounded=0;orthogonalLoop=1;jettySize=auto;html=1;exitX=0.25;exitY=1;exitDx=0;exitDy=0;entryX=0.25;entryY=0;entryDx=0;entryDy=0;strokeWidth=2;fillColor=#008a00;strokeColor=#005700;" parent="t1getZcMxZ7yQV3_9JbH-9" source="t1getZcMxZ7yQV3_9JbH-5" target="t1getZcMxZ7yQV3_9JbH-6" edge="1">
          <mxGeometry relative="1" as="geometry" />
        </mxCell>
        <mxCell id="t1getZcMxZ7yQV3_9JbH-5" value="Interfaz de Usuario&lt;br&gt;(Activity)" style="rounded=1;whiteSpace=wrap;html=1;fillColor=#60a917;fontColor=#ffffff;strokeColor=#2D7600;" parent="t1getZcMxZ7yQV3_9JbH-9" vertex="1">
          <mxGeometry x="85.71428571428571" y="134.80392156862743" width="128.57142857142856" height="64.70588235294117" as="geometry" />
        </mxCell>
        <mxCell id="t1getZcMxZ7yQV3_9JbH-17" style="edgeStyle=orthogonalEdgeStyle;rounded=0;orthogonalLoop=1;jettySize=auto;html=1;exitX=0.75;exitY=0;exitDx=0;exitDy=0;entryX=0.75;entryY=1;entryDx=0;entryDy=0;strokeWidth=2;fillColor=#008a00;strokeColor=#005700;" parent="t1getZcMxZ7yQV3_9JbH-9" source="t1getZcMxZ7yQV3_9JbH-6" target="t1getZcMxZ7yQV3_9JbH-5" edge="1">
          <mxGeometry relative="1" as="geometry" />
        </mxCell>
        <mxCell id="t1getZcMxZ7yQV3_9JbH-18" style="edgeStyle=orthogonalEdgeStyle;rounded=0;orthogonalLoop=1;jettySize=auto;html=1;exitX=0.5;exitY=1;exitDx=0;exitDy=0;fillColor=#008a00;strokeColor=#005700;strokeWidth=2;" parent="t1getZcMxZ7yQV3_9JbH-9" source="t1getZcMxZ7yQV3_9JbH-6" target="t1getZcMxZ7yQV3_9JbH-7" edge="1">
          <mxGeometry relative="1" as="geometry" />
        </mxCell>
        <mxCell id="t1getZcMxZ7yQV3_9JbH-6" value="Capa de Negocio" style="rounded=1;whiteSpace=wrap;html=1;fillColor=#60a917;fontColor=#ffffff;strokeColor=#2D7600;" parent="t1getZcMxZ7yQV3_9JbH-9" vertex="1">
          <mxGeometry x="85.71428571428571" y="264.2156862745098" width="128.57142857142856" height="64.70588235294117" as="geometry" />
        </mxCell>
        <mxCell id="t1getZcMxZ7yQV3_9JbH-7" value="Capa del dispositivo" style="rounded=1;whiteSpace=wrap;html=1;fillColor=#60a917;fontColor=#ffffff;strokeColor=#2D7600;" parent="t1getZcMxZ7yQV3_9JbH-9" vertex="1">
          <mxGeometry x="85.71428571428571" y="393.62745098039215" width="128.57142857142856" height="64.70588235294117" as="geometry" />
        </mxCell>
        <mxCell id="t1getZcMxZ7yQV3_9JbH-8" value="" style="verticalLabelPosition=bottom;verticalAlign=top;html=1;shadow=0;dashed=0;strokeWidth=1;shape=mxgraph.android.phone2;strokeColor=default;labelBackgroundColor=none;fillColor=#000000;fontColor=#ffffff;" parent="t1getZcMxZ7yQV3_9JbH-9" vertex="1">
          <mxGeometry x="16.07142857142857" width="267.85714285714283" height="550" as="geometry" />
        </mxCell>
        <mxCell id="t1getZcMxZ7yQV3_9JbH-28" value="" style="endArrow=none;html=1;rounded=0;entryX=0;entryY=1;entryDx=0;entryDy=0;exitX=1;exitY=1;exitDx=0;exitDy=0;" parent="t1getZcMxZ7yQV3_9JbH-9" source="t1getZcMxZ7yQV3_9JbH-4" target="t1getZcMxZ7yQV3_9JbH-4" edge="1">
          <mxGeometry width="50" height="50" relative="1" as="geometry">
            <mxPoint x="310" y="107.84" as="sourcePoint" />
            <mxPoint x="10" y="107.84" as="targetPoint" />
          </mxGeometry>
        </mxCell>
        <mxCell id="t1getZcMxZ7yQV3_9JbH-22" value="" style="group" parent="1" vertex="1" connectable="0">
          <mxGeometry x="300" y="90" width="280" height="580" as="geometry" />
        </mxCell>
        <mxCell id="t1getZcMxZ7yQV3_9JbH-10" value="" style="html=1;verticalLabelPosition=bottom;labelBackgroundColor=#ffffff;verticalAlign=top;shadow=0;dashed=0;strokeWidth=1;shape=mxgraph.ios7.misc.iphone;" parent="t1getZcMxZ7yQV3_9JbH-22" vertex="1">
          <mxGeometry width="280" height="580" as="geometry" />
        </mxCell>
        <mxCell id="t1getZcMxZ7yQV3_9JbH-11" value="&lt;h1&gt;Xamarin.iOS&lt;/h1&gt;" style="text;html=1;strokeColor=none;fillColor=none;spacing=5;spacingTop=-20;whiteSpace=wrap;overflow=hidden;rounded=0;align=center;" parent="t1getZcMxZ7yQV3_9JbH-22" vertex="1">
          <mxGeometry x="32.5" y="95" width="215" height="40" as="geometry" />
        </mxCell>
        <mxCell id="t1getZcMxZ7yQV3_9JbH-12" value="Interfaz de Usuario&lt;br&gt;(ViewController)" style="rounded=1;whiteSpace=wrap;html=1;fillColor=#60a917;fontColor=#ffffff;strokeColor=#2D7600;" parent="t1getZcMxZ7yQV3_9JbH-22" vertex="1">
          <mxGeometry x="80" y="167.5" width="120" height="60" as="geometry" />
        </mxCell>
        <mxCell id="t1getZcMxZ7yQV3_9JbH-13" value="Capa de Negocio" style="rounded=1;whiteSpace=wrap;html=1;fillColor=#60a917;fontColor=#ffffff;strokeColor=#2D7600;" parent="t1getZcMxZ7yQV3_9JbH-22" vertex="1">
          <mxGeometry x="80" y="287.5" width="120" height="60" as="geometry" />
        </mxCell>
        <mxCell id="t1getZcMxZ7yQV3_9JbH-14" value="Capa del dispositivo" style="rounded=1;whiteSpace=wrap;html=1;fillColor=#60a917;fontColor=#ffffff;strokeColor=#2D7600;" parent="t1getZcMxZ7yQV3_9JbH-22" vertex="1">
          <mxGeometry x="80" y="407.5" width="120" height="60" as="geometry" />
        </mxCell>
        <mxCell id="t1getZcMxZ7yQV3_9JbH-19" style="edgeStyle=orthogonalEdgeStyle;rounded=0;orthogonalLoop=1;jettySize=auto;html=1;exitX=0.25;exitY=1;exitDx=0;exitDy=0;entryX=0.25;entryY=0;entryDx=0;entryDy=0;strokeWidth=2;fillColor=#008a00;strokeColor=#005700;" parent="t1getZcMxZ7yQV3_9JbH-22" edge="1">
          <mxGeometry relative="1" as="geometry">
            <mxPoint x="110" y="228" as="sourcePoint" />
            <mxPoint x="110" y="288" as="targetPoint" />
          </mxGeometry>
        </mxCell>
        <mxCell id="t1getZcMxZ7yQV3_9JbH-20" style="edgeStyle=orthogonalEdgeStyle;rounded=0;orthogonalLoop=1;jettySize=auto;html=1;exitX=0.75;exitY=0;exitDx=0;exitDy=0;entryX=0.75;entryY=1;entryDx=0;entryDy=0;strokeWidth=2;fillColor=#008a00;strokeColor=#005700;" parent="t1getZcMxZ7yQV3_9JbH-22" edge="1">
          <mxGeometry relative="1" as="geometry">
            <mxPoint x="170" y="288" as="sourcePoint" />
            <mxPoint x="170" y="228" as="targetPoint" />
          </mxGeometry>
        </mxCell>
        <mxCell id="t1getZcMxZ7yQV3_9JbH-21" style="edgeStyle=orthogonalEdgeStyle;rounded=0;orthogonalLoop=1;jettySize=auto;html=1;exitX=0.5;exitY=1;exitDx=0;exitDy=0;fillColor=#008a00;strokeColor=#005700;strokeWidth=2;" parent="t1getZcMxZ7yQV3_9JbH-22" edge="1">
          <mxGeometry relative="1" as="geometry">
            <mxPoint x="140" y="348" as="sourcePoint" />
            <mxPoint x="140" y="408" as="targetPoint" />
          </mxGeometry>
        </mxCell>
        <mxCell id="t1getZcMxZ7yQV3_9JbH-27" value="" style="endArrow=none;html=1;rounded=0;entryX=0;entryY=1;entryDx=0;entryDy=0;exitX=1;exitY=1;exitDx=0;exitDy=0;" parent="t1getZcMxZ7yQV3_9JbH-22" source="t1getZcMxZ7yQV3_9JbH-11" target="t1getZcMxZ7yQV3_9JbH-11" edge="1">
          <mxGeometry width="50" height="50" relative="1" as="geometry">
            <mxPoint x="280" y="142.5" as="sourcePoint" />
            <mxPoint x="-20" y="142.5" as="targetPoint" />
          </mxGeometry>
        </mxCell>
        <mxCell id="t1getZcMxZ7yQV3_9JbH-23" value="" style="rounded=1;whiteSpace=wrap;html=1;" parent="1" vertex="1">
          <mxGeometry x="-170.71" y="110" width="290" height="570" as="geometry" />
        </mxCell>
        <mxCell id="t1getZcMxZ7yQV3_9JbH-24" value="&lt;h1&gt;LibrerÃ­a .NET&lt;/h1&gt;" style="text;html=1;strokeColor=none;fillColor=none;spacing=5;spacingTop=-20;whiteSpace=wrap;overflow=hidden;rounded=0;align=center;" parent="1" vertex="1">
          <mxGeometry x="-150.71" y="170" width="250" height="43.14" as="geometry" />
        </mxCell>
        <mxCell id="t1getZcMxZ7yQV3_9JbH-25" value="Capa de Negocio" style="rounded=1;whiteSpace=wrap;html=1;fillColor=#60a917;fontColor=#ffffff;strokeColor=#2D7600;" parent="1" vertex="1">
          <mxGeometry x="-89.99571428571431" y="374.2156862745098" width="128.57142857142856" height="64.70588235294117" as="geometry" />
        </mxCell>
        <mxCell id="t1getZcMxZ7yQV3_9JbH-26" value="" style="endArrow=none;html=1;rounded=0;entryX=0;entryY=1;entryDx=0;entryDy=0;exitX=1;exitY=1;exitDx=0;exitDy=0;" parent="1" source="t1getZcMxZ7yQV3_9JbH-24" target="t1getZcMxZ7yQV3_9JbH-24" edge="1">
          <mxGeometry width="50" height="50" relative="1" as="geometry">
            <mxPoint x="70" y="213.13" as="sourcePoint" />
            <mxPoint x="-130" y="243.13" as="targetPoint" />
          </mxGeometry>
        </mxCell>
        <mxCell id="t1getZcMxZ7yQV3_9JbH-29" style="edgeStyle=orthogonalEdgeStyle;rounded=0;orthogonalLoop=1;jettySize=auto;html=1;exitX=0;exitY=0.5;exitDx=0;exitDy=0;strokeWidth=2;fillColor=#008a00;strokeColor=#005700;" parent="1" source="t1getZcMxZ7yQV3_9JbH-13" target="t1getZcMxZ7yQV3_9JbH-25" edge="1">
          <mxGeometry relative="1" as="geometry" />
        </mxCell>
        <mxCell id="t1getZcMxZ7yQV3_9JbH-30" style="edgeStyle=orthogonalEdgeStyle;rounded=0;orthogonalLoop=1;jettySize=auto;html=1;exitX=1;exitY=0.5;exitDx=0;exitDy=0;entryX=0;entryY=0.5;entryDx=0;entryDy=0;strokeWidth=2;fillColor=#008a00;strokeColor=#005700;" parent="1" source="t1getZcMxZ7yQV3_9JbH-6" target="t1getZcMxZ7yQV3_9JbH-25" edge="1">
          <mxGeometry relative="1" as="geometry" />
        </mxCell>
      </root>
    </mxGraphModel>
  </diagram>
  <diagram id="5qLozwJK3MKTOQkQo2sD" name="Page-2">
    <mxGraphModel dx="2261" dy="756" grid="1" gridSize="10" guides="1" tooltips="1" connect="1" arrows="1" fold="1" page="1" pageScale="1" pageWidth="827" pageHeight="1169" math="0" shadow="0">
      <root>
        <mxCell id="0" />
        <mxCell id="1" parent="0" />
        <mxCell id="iIe3z56davYsgIi1t1WD-1" value="" style="group" parent="1" vertex="1" connectable="0">
          <mxGeometry x="-650" y="110" width="300" height="550" as="geometry" />
        </mxCell>
        <mxCell id="iIe3z56davYsgIi1t1WD-2" value="&lt;h1&gt;Xamarin.Android&lt;/h1&gt;" style="text;html=1;strokeColor=none;fillColor=none;spacing=5;spacingTop=-20;whiteSpace=wrap;overflow=hidden;rounded=0;align=center;" parent="iIe3z56davYsgIi1t1WD-1" vertex="1">
          <mxGeometry x="40" y="59.99999999999999" width="220" height="43.14" as="geometry" />
        </mxCell>
        <mxCell id="iIe3z56davYsgIi1t1WD-4" value="Interfaz de Usuario&lt;br&gt;(Activity)" style="rounded=1;whiteSpace=wrap;html=1;fillColor=#60a917;fontColor=#ffffff;strokeColor=#2D7600;" parent="iIe3z56davYsgIi1t1WD-1" vertex="1">
          <mxGeometry x="85.71428571428571" y="134.80392156862743" width="128.57142857142856" height="64.70588235294117" as="geometry" />
        </mxCell>
        <mxCell id="iIe3z56davYsgIi1t1WD-6" style="edgeStyle=orthogonalEdgeStyle;rounded=0;orthogonalLoop=1;jettySize=auto;html=1;exitX=0.5;exitY=1;exitDx=0;exitDy=0;fillColor=#008a00;strokeColor=#60A917;strokeWidth=2;" parent="iIe3z56davYsgIi1t1WD-1" source="iIe3z56davYsgIi1t1WD-7" target="iIe3z56davYsgIi1t1WD-8" edge="1">
          <mxGeometry relative="1" as="geometry" />
        </mxCell>
        <mxCell id="iIe3z56davYsgIi1t1WD-7" value="LÃ³gica de la App" style="rounded=1;whiteSpace=wrap;html=1;fillColor=#60a917;fontColor=#ffffff;strokeColor=#2D7600;" parent="iIe3z56davYsgIi1t1WD-1" vertex="1">
          <mxGeometry x="85.71428571428571" y="264.2156862745098" width="128.57142857142856" height="64.70588235294117" as="geometry" />
        </mxCell>
        <mxCell id="iIe3z56davYsgIi1t1WD-8" value="Capa del dispositivo" style="rounded=1;whiteSpace=wrap;html=1;fillColor=#60a917;fontColor=#ffffff;strokeColor=#2D7600;" parent="iIe3z56davYsgIi1t1WD-1" vertex="1">
          <mxGeometry x="85.71428571428571" y="393.62745098039215" width="128.57142857142856" height="64.70588235294117" as="geometry" />
        </mxCell>
        <mxCell id="iIe3z56davYsgIi1t1WD-9" value="" style="verticalLabelPosition=bottom;verticalAlign=top;html=1;shadow=0;dashed=0;strokeWidth=1;shape=mxgraph.android.phone2;strokeColor=default;labelBackgroundColor=none;fillColor=#000000;fontColor=#ffffff;" parent="iIe3z56davYsgIi1t1WD-1" vertex="1">
          <mxGeometry x="16.07142857142857" width="267.85714285714283" height="550" as="geometry" />
        </mxCell>
        <mxCell id="iIe3z56davYsgIi1t1WD-10" value="" style="endArrow=none;html=1;rounded=0;entryX=0;entryY=1;entryDx=0;entryDy=0;exitX=1;exitY=1;exitDx=0;exitDy=0;" parent="iIe3z56davYsgIi1t1WD-1" source="iIe3z56davYsgIi1t1WD-2" target="iIe3z56davYsgIi1t1WD-2" edge="1">
          <mxGeometry width="50" height="50" relative="1" as="geometry">
            <mxPoint x="310" y="107.84" as="sourcePoint" />
            <mxPoint x="10" y="107.84" as="targetPoint" />
          </mxGeometry>
        </mxCell>
        <mxCell id="iIe3z56davYsgIi1t1WD-29" value="" style="rounded=1;whiteSpace=wrap;html=1;fillColor=none;strokeColor=#60a917;strokeWidth=2;dashed=1;" parent="iIe3z56davYsgIi1t1WD-1" vertex="1">
          <mxGeometry x="74" y="123" width="151" height="90" as="geometry" />
        </mxCell>
        <mxCell id="iIe3z56davYsgIi1t1WD-11" value="" style="group" parent="1" vertex="1" connectable="0">
          <mxGeometry x="300" y="90" width="280" height="580" as="geometry" />
        </mxCell>
        <mxCell id="iIe3z56davYsgIi1t1WD-12" value="" style="html=1;verticalLabelPosition=bottom;labelBackgroundColor=#ffffff;verticalAlign=top;shadow=0;dashed=0;strokeWidth=1;shape=mxgraph.ios7.misc.iphone;" parent="iIe3z56davYsgIi1t1WD-11" vertex="1">
          <mxGeometry width="280" height="580" as="geometry" />
        </mxCell>
        <mxCell id="iIe3z56davYsgIi1t1WD-13" value="&lt;h1&gt;Xamarin.iOS&lt;/h1&gt;" style="text;html=1;strokeColor=none;fillColor=none;spacing=5;spacingTop=-20;whiteSpace=wrap;overflow=hidden;rounded=0;align=center;" parent="iIe3z56davYsgIi1t1WD-11" vertex="1">
          <mxGeometry x="32.5" y="95" width="215" height="40" as="geometry" />
        </mxCell>
        <mxCell id="iIe3z56davYsgIi1t1WD-14" value="Interfaz de Usuario&lt;br&gt;(ViewController)" style="rounded=1;whiteSpace=wrap;html=1;fillColor=#60a917;fontColor=#ffffff;strokeColor=#2D7600;" parent="iIe3z56davYsgIi1t1WD-11" vertex="1">
          <mxGeometry x="80" y="167.5" width="120" height="60" as="geometry" />
        </mxCell>
        <mxCell id="iIe3z56davYsgIi1t1WD-15" value="LÃ³gica de la App" style="rounded=1;whiteSpace=wrap;html=1;fillColor=#60a917;fontColor=#ffffff;strokeColor=#2D7600;" parent="iIe3z56davYsgIi1t1WD-11" vertex="1">
          <mxGeometry x="80" y="287.5" width="120" height="60" as="geometry" />
        </mxCell>
        <mxCell id="iIe3z56davYsgIi1t1WD-16" value="Capa del dispositivo" style="rounded=1;whiteSpace=wrap;html=1;fillColor=#60a917;fontColor=#ffffff;strokeColor=#2D7600;" parent="iIe3z56davYsgIi1t1WD-11" vertex="1">
          <mxGeometry x="80" y="407.5" width="120" height="60" as="geometry" />
        </mxCell>
        <mxCell id="iIe3z56davYsgIi1t1WD-19" style="edgeStyle=orthogonalEdgeStyle;rounded=0;orthogonalLoop=1;jettySize=auto;html=1;exitX=0.5;exitY=1;exitDx=0;exitDy=0;fillColor=#008a00;strokeColor=#60A917;strokeWidth=2;" parent="iIe3z56davYsgIi1t1WD-11" edge="1">
          <mxGeometry relative="1" as="geometry">
            <mxPoint x="140" y="348" as="sourcePoint" />
            <mxPoint x="140" y="408" as="targetPoint" />
          </mxGeometry>
        </mxCell>
        <mxCell id="iIe3z56davYsgIi1t1WD-20" value="" style="endArrow=none;html=1;rounded=0;entryX=0;entryY=1;entryDx=0;entryDy=0;exitX=1;exitY=1;exitDx=0;exitDy=0;" parent="iIe3z56davYsgIi1t1WD-11" source="iIe3z56davYsgIi1t1WD-13" target="iIe3z56davYsgIi1t1WD-13" edge="1">
          <mxGeometry width="50" height="50" relative="1" as="geometry">
            <mxPoint x="280" y="142.5" as="sourcePoint" />
            <mxPoint x="-20" y="142.5" as="targetPoint" />
          </mxGeometry>
        </mxCell>
        <mxCell id="iIe3z56davYsgIi1t1WD-30" value="" style="rounded=1;whiteSpace=wrap;html=1;fillColor=none;strokeColor=#60a917;strokeWidth=2;dashed=1;" parent="iIe3z56davYsgIi1t1WD-11" vertex="1">
          <mxGeometry x="64.5" y="152.5" width="151" height="90" as="geometry" />
        </mxCell>
        <mxCell id="iIe3z56davYsgIi1t1WD-21" value="" style="rounded=1;whiteSpace=wrap;html=1;" parent="1" vertex="1">
          <mxGeometry x="-170.71" y="110" width="290" height="570" as="geometry" />
        </mxCell>
        <mxCell id="iIe3z56davYsgIi1t1WD-22" value="&lt;h1&gt;LibrerÃ­a .NET&lt;/h1&gt;" style="text;html=1;strokeColor=none;fillColor=none;spacing=5;spacingTop=-20;whiteSpace=wrap;overflow=hidden;rounded=0;align=center;" parent="1" vertex="1">
          <mxGeometry x="-150.71" y="170" width="250" height="43.14" as="geometry" />
        </mxCell>
        <mxCell id="iIe3z56davYsgIi1t1WD-34" style="edgeStyle=orthogonalEdgeStyle;rounded=0;orthogonalLoop=1;jettySize=auto;html=1;exitX=0.75;exitY=0;exitDx=0;exitDy=0;entryX=0.75;entryY=1;entryDx=0;entryDy=0;strokeWidth=2;strokeColor=#60A917;" parent="1" source="iIe3z56davYsgIi1t1WD-23" target="iIe3z56davYsgIi1t1WD-27" edge="1">
          <mxGeometry relative="1" as="geometry" />
        </mxCell>
        <mxCell id="iIe3z56davYsgIi1t1WD-23" value="Capa de Negocio" style="rounded=1;whiteSpace=wrap;html=1;fillColor=#60a917;fontColor=#ffffff;strokeColor=#2D7600;" parent="1" vertex="1">
          <mxGeometry x="-89.99571428571431" y="374.2156862745098" width="128.57142857142856" height="64.70588235294117" as="geometry" />
        </mxCell>
        <mxCell id="iIe3z56davYsgIi1t1WD-24" value="" style="endArrow=none;html=1;rounded=0;entryX=0;entryY=1;entryDx=0;entryDy=0;exitX=1;exitY=1;exitDx=0;exitDy=0;" parent="1" source="iIe3z56davYsgIi1t1WD-22" target="iIe3z56davYsgIi1t1WD-22" edge="1">
          <mxGeometry width="50" height="50" relative="1" as="geometry">
            <mxPoint x="70" y="213.13" as="sourcePoint" />
            <mxPoint x="-130" y="243.13" as="targetPoint" />
          </mxGeometry>
        </mxCell>
        <mxCell id="iIe3z56davYsgIi1t1WD-25" style="edgeStyle=orthogonalEdgeStyle;rounded=0;orthogonalLoop=1;jettySize=auto;html=1;exitX=0;exitY=0.5;exitDx=0;exitDy=0;strokeWidth=2;fillColor=#008a00;strokeColor=#60A917;endArrow=none;endFill=0;startArrow=classic;startFill=1;" parent="1" source="iIe3z56davYsgIi1t1WD-15" target="iIe3z56davYsgIi1t1WD-23" edge="1">
          <mxGeometry relative="1" as="geometry" />
        </mxCell>
        <mxCell id="iIe3z56davYsgIi1t1WD-26" style="edgeStyle=orthogonalEdgeStyle;rounded=0;orthogonalLoop=1;jettySize=auto;html=1;exitX=1;exitY=0.5;exitDx=0;exitDy=0;entryX=0;entryY=0.5;entryDx=0;entryDy=0;strokeWidth=2;fillColor=#008a00;strokeColor=#60A917;endArrow=none;endFill=0;startArrow=classic;startFill=1;" parent="1" source="iIe3z56davYsgIi1t1WD-7" target="iIe3z56davYsgIi1t1WD-23" edge="1">
          <mxGeometry relative="1" as="geometry" />
        </mxCell>
        <mxCell id="iIe3z56davYsgIi1t1WD-31" style="rounded=0;orthogonalLoop=1;jettySize=auto;html=1;exitX=0;exitY=0.5;exitDx=0;exitDy=0;entryX=1;entryY=0.25;entryDx=0;entryDy=0;strokeWidth=2;strokeColor=#60A917;" parent="1" source="iIe3z56davYsgIi1t1WD-27" target="iIe3z56davYsgIi1t1WD-29" edge="1">
          <mxGeometry relative="1" as="geometry" />
        </mxCell>
        <mxCell id="iIe3z56davYsgIi1t1WD-32" style="rounded=0;orthogonalLoop=1;jettySize=auto;html=1;exitX=1;exitY=0.5;exitDx=0;exitDy=0;entryX=0;entryY=0.25;entryDx=0;entryDy=0;strokeWidth=2;strokeColor=#60A917;" parent="1" source="iIe3z56davYsgIi1t1WD-27" target="iIe3z56davYsgIi1t1WD-30" edge="1">
          <mxGeometry relative="1" as="geometry" />
        </mxCell>
        <mxCell id="iIe3z56davYsgIi1t1WD-33" style="edgeStyle=orthogonalEdgeStyle;rounded=0;orthogonalLoop=1;jettySize=auto;html=1;exitX=0.25;exitY=1;exitDx=0;exitDy=0;entryX=0.25;entryY=0;entryDx=0;entryDy=0;strokeWidth=2;strokeColor=#60A917;" parent="1" source="iIe3z56davYsgIi1t1WD-27" target="iIe3z56davYsgIi1t1WD-23" edge="1">
          <mxGeometry relative="1" as="geometry" />
        </mxCell>
        <mxCell id="iIe3z56davYsgIi1t1WD-27" value="Xamarin.Forms" style="rounded=1;whiteSpace=wrap;html=1;fillColor=#60a917;fontColor=#ffffff;strokeColor=#2D7600;" parent="1" vertex="1">
          <mxGeometry x="-89.99571428571431" y="259.9956862745098" width="128.57142857142856" height="64.70588235294117" as="geometry" />
        </mxCell>
      </root>
    </mxGraphModel>
  </diagram>
  <diagram id="ojAW4rabrQ-8lE7Yu5ff" name="Page-3">
    <mxGraphModel dx="2261" dy="756" grid="1" gridSize="10" guides="1" tooltips="1" connect="1" arrows="1" fold="1" page="1" pageScale="1" pageWidth="827" pageHeight="1169" math="0" shadow="0">
      <root>
        <mxCell id="0" />
        <mxCell id="1" parent="0" />
        <mxCell id="y9RFGwCxcJGSp-k7myFU-1" value="" style="group" parent="1" vertex="1" connectable="0">
          <mxGeometry x="-650" y="110" width="300" height="550" as="geometry" />
        </mxCell>
        <mxCell id="y9RFGwCxcJGSp-k7myFU-2" value="&lt;h1&gt;Xamarin.Android&lt;/h1&gt;" style="text;html=1;strokeColor=none;fillColor=none;spacing=5;spacingTop=-20;whiteSpace=wrap;overflow=hidden;rounded=0;align=center;" parent="y9RFGwCxcJGSp-k7myFU-1" vertex="1">
          <mxGeometry x="40" y="59.99999999999999" width="220" height="43.14" as="geometry" />
        </mxCell>
        <mxCell id="y9RFGwCxcJGSp-k7myFU-3" value="Interfaz de Usuario&lt;br&gt;(Activity)" style="rounded=1;whiteSpace=wrap;html=1;fillColor=#60a917;fontColor=#ffffff;strokeColor=#2D7600;" parent="y9RFGwCxcJGSp-k7myFU-1" vertex="1">
          <mxGeometry x="85.71428571428571" y="134.80392156862743" width="128.57142857142856" height="64.70588235294117" as="geometry" />
        </mxCell>
        <mxCell id="y9RFGwCxcJGSp-k7myFU-6" value="Capa del dispositivo" style="rounded=1;whiteSpace=wrap;html=1;fillColor=#60a917;fontColor=#ffffff;strokeColor=#2D7600;" parent="y9RFGwCxcJGSp-k7myFU-1" vertex="1">
          <mxGeometry x="85.71428571428571" y="393.62745098039215" width="128.57142857142856" height="64.70588235294117" as="geometry" />
        </mxCell>
        <mxCell id="y9RFGwCxcJGSp-k7myFU-7" value="" style="verticalLabelPosition=bottom;verticalAlign=top;html=1;shadow=0;dashed=0;strokeWidth=1;shape=mxgraph.android.phone2;strokeColor=default;labelBackgroundColor=none;fillColor=#000000;fontColor=#ffffff;" parent="y9RFGwCxcJGSp-k7myFU-1" vertex="1">
          <mxGeometry x="16.07142857142857" width="267.85714285714283" height="550" as="geometry" />
        </mxCell>
        <mxCell id="y9RFGwCxcJGSp-k7myFU-8" value="" style="endArrow=none;html=1;rounded=0;entryX=0;entryY=1;entryDx=0;entryDy=0;exitX=1;exitY=1;exitDx=0;exitDy=0;" parent="y9RFGwCxcJGSp-k7myFU-1" source="y9RFGwCxcJGSp-k7myFU-2" target="y9RFGwCxcJGSp-k7myFU-2" edge="1">
          <mxGeometry width="50" height="50" relative="1" as="geometry">
            <mxPoint x="310" y="107.84" as="sourcePoint" />
            <mxPoint x="10" y="107.84" as="targetPoint" />
          </mxGeometry>
        </mxCell>
        <mxCell id="y9RFGwCxcJGSp-k7myFU-9" value="" style="rounded=1;whiteSpace=wrap;html=1;fillColor=none;strokeColor=#60a917;strokeWidth=2;dashed=1;" parent="y9RFGwCxcJGSp-k7myFU-1" vertex="1">
          <mxGeometry x="74" y="123" width="151" height="90" as="geometry" />
        </mxCell>
        <mxCell id="y9RFGwCxcJGSp-k7myFU-31" value="" style="rounded=1;whiteSpace=wrap;html=1;fillColor=none;strokeColor=#60a917;strokeWidth=2;dashed=1;" parent="y9RFGwCxcJGSp-k7myFU-1" vertex="1">
          <mxGeometry x="74" y="380.98" width="151" height="90" as="geometry" />
        </mxCell>
        <mxCell id="y9RFGwCxcJGSp-k7myFU-10" value="" style="group" parent="1" vertex="1" connectable="0">
          <mxGeometry x="300" y="90" width="280" height="580" as="geometry" />
        </mxCell>
        <mxCell id="y9RFGwCxcJGSp-k7myFU-11" value="" style="html=1;verticalLabelPosition=bottom;labelBackgroundColor=#ffffff;verticalAlign=top;shadow=0;dashed=0;strokeWidth=1;shape=mxgraph.ios7.misc.iphone;" parent="y9RFGwCxcJGSp-k7myFU-10" vertex="1">
          <mxGeometry width="280" height="580" as="geometry" />
        </mxCell>
        <mxCell id="y9RFGwCxcJGSp-k7myFU-12" value="&lt;h1&gt;Xamarin.iOS&lt;/h1&gt;" style="text;html=1;strokeColor=none;fillColor=none;spacing=5;spacingTop=-20;whiteSpace=wrap;overflow=hidden;rounded=0;align=center;" parent="y9RFGwCxcJGSp-k7myFU-10" vertex="1">
          <mxGeometry x="32.5" y="95" width="215" height="40" as="geometry" />
        </mxCell>
        <mxCell id="y9RFGwCxcJGSp-k7myFU-13" value="Interfaz de Usuario&lt;br&gt;(ViewController)" style="rounded=1;whiteSpace=wrap;html=1;fillColor=#60a917;fontColor=#ffffff;strokeColor=#2D7600;" parent="y9RFGwCxcJGSp-k7myFU-10" vertex="1">
          <mxGeometry x="80" y="167.5" width="120" height="60" as="geometry" />
        </mxCell>
        <mxCell id="y9RFGwCxcJGSp-k7myFU-15" value="Capa del dispositivo" style="rounded=1;whiteSpace=wrap;html=1;fillColor=#60a917;fontColor=#ffffff;strokeColor=#2D7600;" parent="y9RFGwCxcJGSp-k7myFU-10" vertex="1">
          <mxGeometry x="80" y="407.5" width="120" height="60" as="geometry" />
        </mxCell>
        <mxCell id="y9RFGwCxcJGSp-k7myFU-17" value="" style="endArrow=none;html=1;rounded=0;entryX=0;entryY=1;entryDx=0;entryDy=0;exitX=1;exitY=1;exitDx=0;exitDy=0;" parent="y9RFGwCxcJGSp-k7myFU-10" source="y9RFGwCxcJGSp-k7myFU-12" target="y9RFGwCxcJGSp-k7myFU-12" edge="1">
          <mxGeometry width="50" height="50" relative="1" as="geometry">
            <mxPoint x="280" y="142.5" as="sourcePoint" />
            <mxPoint x="-20" y="142.5" as="targetPoint" />
          </mxGeometry>
        </mxCell>
        <mxCell id="y9RFGwCxcJGSp-k7myFU-18" value="" style="rounded=1;whiteSpace=wrap;html=1;fillColor=none;strokeColor=#60a917;strokeWidth=2;dashed=1;" parent="y9RFGwCxcJGSp-k7myFU-10" vertex="1">
          <mxGeometry x="64.5" y="152.5" width="151" height="90" as="geometry" />
        </mxCell>
        <mxCell id="y9RFGwCxcJGSp-k7myFU-32" value="" style="rounded=1;whiteSpace=wrap;html=1;fillColor=none;strokeColor=#60a917;strokeWidth=2;dashed=1;" parent="y9RFGwCxcJGSp-k7myFU-10" vertex="1">
          <mxGeometry x="64.5" y="392.5" width="151" height="90" as="geometry" />
        </mxCell>
        <mxCell id="y9RFGwCxcJGSp-k7myFU-19" value="" style="rounded=1;whiteSpace=wrap;html=1;" parent="1" vertex="1">
          <mxGeometry x="-170.71" y="110" width="290" height="570" as="geometry" />
        </mxCell>
        <mxCell id="y9RFGwCxcJGSp-k7myFU-20" value="&lt;h1&gt;LibrerÃ­a .NET&lt;/h1&gt;" style="text;html=1;strokeColor=none;fillColor=none;spacing=5;spacingTop=-20;whiteSpace=wrap;overflow=hidden;rounded=0;align=center;" parent="1" vertex="1">
          <mxGeometry x="-150.71" y="170" width="250" height="43.14" as="geometry" />
        </mxCell>
        <mxCell id="y9RFGwCxcJGSp-k7myFU-21" style="edgeStyle=orthogonalEdgeStyle;rounded=0;orthogonalLoop=1;jettySize=auto;html=1;exitX=0.75;exitY=0;exitDx=0;exitDy=0;entryX=0.75;entryY=1;entryDx=0;entryDy=0;strokeWidth=2;strokeColor=#60A917;" parent="1" source="y9RFGwCxcJGSp-k7myFU-22" target="y9RFGwCxcJGSp-k7myFU-29" edge="1">
          <mxGeometry relative="1" as="geometry" />
        </mxCell>
        <mxCell id="y9RFGwCxcJGSp-k7myFU-22" value="Capa de Negocio" style="rounded=1;whiteSpace=wrap;html=1;fillColor=#60a917;fontColor=#ffffff;strokeColor=#2D7600;" parent="1" vertex="1">
          <mxGeometry x="-89.99571428571431" y="374.2156862745098" width="128.57142857142856" height="64.70588235294117" as="geometry" />
        </mxCell>
        <mxCell id="y9RFGwCxcJGSp-k7myFU-23" value="" style="endArrow=none;html=1;rounded=0;entryX=0;entryY=1;entryDx=0;entryDy=0;exitX=1;exitY=1;exitDx=0;exitDy=0;" parent="1" source="y9RFGwCxcJGSp-k7myFU-20" target="y9RFGwCxcJGSp-k7myFU-20" edge="1">
          <mxGeometry width="50" height="50" relative="1" as="geometry">
            <mxPoint x="70" y="213.13" as="sourcePoint" />
            <mxPoint x="-130" y="243.13" as="targetPoint" />
          </mxGeometry>
        </mxCell>
        <mxCell id="y9RFGwCxcJGSp-k7myFU-24" style="rounded=0;orthogonalLoop=1;jettySize=auto;html=1;exitX=0;exitY=0.5;exitDx=0;exitDy=0;strokeWidth=2;fillColor=#008a00;strokeColor=#60A917;endArrow=none;endFill=0;startArrow=classic;startFill=1;entryX=1;entryY=0.5;entryDx=0;entryDy=0;" parent="1" source="y9RFGwCxcJGSp-k7myFU-32" target="y9RFGwCxcJGSp-k7myFU-30" edge="1">
          <mxGeometry relative="1" as="geometry">
            <mxPoint x="380" y="407.5" as="sourcePoint" />
          </mxGeometry>
        </mxCell>
        <mxCell id="y9RFGwCxcJGSp-k7myFU-25" style="rounded=0;orthogonalLoop=1;jettySize=auto;html=1;exitX=1;exitY=0.5;exitDx=0;exitDy=0;entryX=0;entryY=0.5;entryDx=0;entryDy=0;strokeWidth=2;fillColor=#008a00;strokeColor=#60A917;endArrow=none;endFill=0;startArrow=classic;startFill=1;" parent="1" source="y9RFGwCxcJGSp-k7myFU-31" target="y9RFGwCxcJGSp-k7myFU-30" edge="1">
          <mxGeometry relative="1" as="geometry">
            <mxPoint x="-435.7142857142858" y="406.56862745098033" as="sourcePoint" />
          </mxGeometry>
        </mxCell>
        <mxCell id="y9RFGwCxcJGSp-k7myFU-26" style="rounded=0;orthogonalLoop=1;jettySize=auto;html=1;exitX=0;exitY=0.5;exitDx=0;exitDy=0;entryX=1;entryY=0.5;entryDx=0;entryDy=0;strokeWidth=2;strokeColor=#60A917;" parent="1" source="y9RFGwCxcJGSp-k7myFU-29" target="y9RFGwCxcJGSp-k7myFU-9" edge="1">
          <mxGeometry relative="1" as="geometry" />
        </mxCell>
        <mxCell id="y9RFGwCxcJGSp-k7myFU-27" style="rounded=0;orthogonalLoop=1;jettySize=auto;html=1;exitX=1;exitY=0.5;exitDx=0;exitDy=0;entryX=0;entryY=0.5;entryDx=0;entryDy=0;strokeWidth=2;strokeColor=#60A917;" parent="1" source="y9RFGwCxcJGSp-k7myFU-29" target="y9RFGwCxcJGSp-k7myFU-18" edge="1">
          <mxGeometry relative="1" as="geometry" />
        </mxCell>
        <mxCell id="y9RFGwCxcJGSp-k7myFU-28" style="edgeStyle=orthogonalEdgeStyle;rounded=0;orthogonalLoop=1;jettySize=auto;html=1;exitX=0.25;exitY=1;exitDx=0;exitDy=0;entryX=0.25;entryY=0;entryDx=0;entryDy=0;strokeWidth=2;strokeColor=#60A917;" parent="1" source="y9RFGwCxcJGSp-k7myFU-29" target="y9RFGwCxcJGSp-k7myFU-22" edge="1">
          <mxGeometry relative="1" as="geometry" />
        </mxCell>
        <mxCell id="y9RFGwCxcJGSp-k7myFU-29" value="Xamarin.Forms" style="rounded=1;whiteSpace=wrap;html=1;fillColor=#60a917;fontColor=#ffffff;strokeColor=#2D7600;" parent="1" vertex="1">
          <mxGeometry x="-89.99571428571431" y="259.9956862745098" width="128.57142857142856" height="64.70588235294117" as="geometry" />
        </mxCell>
        <mxCell id="y9RFGwCxcJGSp-k7myFU-30" value="Xamarin.Essentials" style="rounded=1;whiteSpace=wrap;html=1;fillColor=#60a917;fontColor=#ffffff;strokeColor=#2D7600;" parent="1" vertex="1">
          <mxGeometry x="-89.99571428571431" y="489.9956862745098" width="128.57142857142856" height="64.70588235294117" as="geometry" />
        </mxCell>
        <mxCell id="y9RFGwCxcJGSp-k7myFU-4" style="rounded=0;orthogonalLoop=1;jettySize=auto;html=1;exitX=0.5;exitY=1;exitDx=0;exitDy=0;fillColor=#008a00;strokeColor=#60A917;strokeWidth=2;entryX=0.5;entryY=0;entryDx=0;entryDy=0;" parent="1" source="y9RFGwCxcJGSp-k7myFU-22" target="y9RFGwCxcJGSp-k7myFU-30" edge="1">
          <mxGeometry relative="1" as="geometry">
            <mxPoint x="-500" y="438.92156862745105" as="sourcePoint" />
          </mxGeometry>
        </mxCell>
      </root>
    </mxGraphModel>
  </diagram>
  <diagram id="U9g00wmuhnihDiPSvzc1" name="Page-4">
    <mxGraphModel dx="2261" dy="756" grid="1" gridSize="10" guides="1" tooltips="1" connect="1" arrows="1" fold="1" page="1" pageScale="1" pageWidth="827" pageHeight="1169" math="0" shadow="0">
      <root>
        <mxCell id="0" />
        <mxCell id="1" parent="0" />
        <mxCell id="w1Lvh8WPqsxckEotxQ-d-1" value="" style="endArrow=none;dashed=1;html=1;dashPattern=1 3;strokeWidth=2;rounded=0;" parent="1" edge="1">
          <mxGeometry width="50" height="50" relative="1" as="geometry">
            <mxPoint x="-180" y="340" as="sourcePoint" />
            <mxPoint x="710" y="340" as="targetPoint" />
          </mxGeometry>
        </mxCell>
        <mxCell id="w1Lvh8WPqsxckEotxQ-d-2" value="&lt;b&gt;2004&lt;/b&gt;&lt;br&gt;Mono&lt;br&gt;.Net en Linux" style="shape=callout;whiteSpace=wrap;html=1;perimeter=calloutPerimeter;size=10;position=0.42;base=20;" parent="1" vertex="1">
          <mxGeometry x="-220" y="260" width="120" height="80" as="geometry" />
        </mxCell>
        <mxCell id="w1Lvh8WPqsxckEotxQ-d-3" value="&lt;b&gt;2009 - 2011&lt;/b&gt;&lt;br&gt;MonoTouch y MonoDroid" style="shape=callout;whiteSpace=wrap;html=1;perimeter=calloutPerimeter;size=10;position=0.42;base=20;position2=0.5;rotation=0;" parent="1" vertex="1">
          <mxGeometry x="-60" y="260" width="120" height="80" as="geometry" />
        </mxCell>
        <mxCell id="w1Lvh8WPqsxckEotxQ-d-4" value="&lt;b&gt;2014&lt;/b&gt;&lt;br&gt;Xamarin.Forms&lt;br&gt;&lt;font style=&quot;font-size: 10px;&quot;&gt;(UI Multiplataforma)&lt;/font&gt;" style="shape=callout;whiteSpace=wrap;html=1;perimeter=calloutPerimeter;size=10;position=0.42;base=20;position2=0.5;rotation=0;" parent="1" vertex="1">
          <mxGeometry x="70" y="260" width="120" height="80" as="geometry" />
        </mxCell>
        <mxCell id="w1Lvh8WPqsxckEotxQ-d-5" value="&lt;b&gt;2016&lt;/b&gt;&lt;br&gt;Xamarin en Visual Studio&lt;br&gt;&lt;font style=&quot;font-size: 10px;&quot;&gt;(Microsoft compra Xamarin)&lt;/font&gt;" style="shape=callout;whiteSpace=wrap;html=1;perimeter=calloutPerimeter;size=10;position=0.42;base=20;position2=0.5;rotation=0;" parent="1" vertex="1">
          <mxGeometry x="200" y="240" width="130" height="100" as="geometry" />
        </mxCell>
        <mxCell id="w1Lvh8WPqsxckEotxQ-d-6" value="&lt;b&gt;2020&lt;/b&gt;&lt;br&gt;.NET MAUI 5&lt;br&gt;&lt;font style=&quot;font-size: 10px;&quot;&gt;(Unifica los Frameworks)&lt;/font&gt;" style="shape=callout;whiteSpace=wrap;html=1;perimeter=calloutPerimeter;size=10;position=0.42;base=20;position2=0.5;rotation=0;" parent="1" vertex="1">
          <mxGeometry x="350" y="240" width="130" height="100" as="geometry" />
        </mxCell>
        <mxCell id="w1Lvh8WPqsxckEotxQ-d-7" value="&lt;b&gt;2022&lt;/b&gt;&lt;br&gt;.NET MAUI 7&lt;br&gt;&lt;font style=&quot;font-size: 10px;&quot;&gt;(Mejoras en performance)&lt;/font&gt;" style="shape=callout;whiteSpace=wrap;html=1;perimeter=calloutPerimeter;size=10;position=0.42;base=20;position2=0.5;rotation=0;" parent="1" vertex="1">
          <mxGeometry x="490" y="240" width="130" height="100" as="geometry" />
        </mxCell>
        <mxCell id="w1Lvh8WPqsxckEotxQ-d-8" value="&lt;b&gt;2023&lt;/b&gt;&lt;br&gt;.NET MAUI 8 Preview&lt;br&gt;&lt;font style=&quot;font-size: 10px;&quot;&gt;(TodavÃ­a en Preview)&lt;/font&gt;" style="shape=callout;whiteSpace=wrap;html=1;perimeter=calloutPerimeter;size=10;position=0.42;base=20;position2=0.5;rotation=0;" parent="1" vertex="1">
          <mxGeometry x="627" y="240" width="130" height="100" as="geometry" />
        </mxCell>
      </root>
    </mxGraphModel>
  </diagram>
  <diagram id="hc3YJUbt66yUdkjIqo46" name="Page-5">
    <mxGraphModel dx="1434" dy="756" grid="1" gridSize="10" guides="1" tooltips="1" connect="1" arrows="1" fold="1" page="1" pageScale="1" pageWidth="850" pageHeight="1100" math="0" shadow="0">
      <root>
        <mxCell id="0" />
        <mxCell id="1" parent="0" />
        <mxCell id="3B-3AgHr4KEAlEezWVs6-5" style="edgeStyle=orthogonalEdgeStyle;rounded=0;orthogonalLoop=1;jettySize=auto;html=1;exitX=1;exitY=0.5;exitDx=0;exitDy=0;entryX=0;entryY=0.5;entryDx=0;entryDy=0;" parent="1" source="3B-3AgHr4KEAlEezWVs6-1" target="3B-3AgHr4KEAlEezWVs6-2" edge="1">
          <mxGeometry relative="1" as="geometry" />
        </mxCell>
        <mxCell id="3B-3AgHr4KEAlEezWVs6-6" value="Bindings - Command" style="edgeLabel;html=1;align=center;verticalAlign=middle;resizable=0;points=[];" parent="3B-3AgHr4KEAlEezWVs6-5" vertex="1" connectable="0">
          <mxGeometry x="-0.1024" y="1" relative="1" as="geometry">
            <mxPoint as="offset" />
          </mxGeometry>
        </mxCell>
        <mxCell id="3B-3AgHr4KEAlEezWVs6-1" value="View" style="shape=process;whiteSpace=wrap;html=1;backgroundOutline=1;" parent="1" vertex="1">
          <mxGeometry x="40" y="330" width="120" height="60" as="geometry" />
        </mxCell>
        <mxCell id="3B-3AgHr4KEAlEezWVs6-4" style="edgeStyle=orthogonalEdgeStyle;rounded=0;orthogonalLoop=1;jettySize=auto;html=1;exitX=1;exitY=0.5;exitDx=0;exitDy=0;entryX=0;entryY=0.5;entryDx=0;entryDy=0;" parent="1" source="3B-3AgHr4KEAlEezWVs6-2" target="3B-3AgHr4KEAlEezWVs6-3" edge="1">
          <mxGeometry relative="1" as="geometry" />
        </mxCell>
        <mxCell id="3B-3AgHr4KEAlEezWVs6-2" value="ViewModel" style="shape=process;whiteSpace=wrap;html=1;backgroundOutline=1;" parent="1" vertex="1">
          <mxGeometry x="365" y="330" width="120" height="60" as="geometry" />
        </mxCell>
        <mxCell id="3B-3AgHr4KEAlEezWVs6-3" value="Model" style="shape=process;whiteSpace=wrap;html=1;backgroundOutline=1;" parent="1" vertex="1">
          <mxGeometry x="680" y="330" width="120" height="60" as="geometry" />
        </mxCell>
      </root>
    </mxGraphModel>
  </diagram>
  <diagram id="08uXcibIwpIOy0m6A4sN" name="Page-6">
    <mxGraphModel dx="2284" dy="756" grid="1" gridSize="10" guides="1" tooltips="1" connect="1" arrows="1" fold="1" page="1" pageScale="1" pageWidth="850" pageHeight="1100" math="0" shadow="0">
      <root>
        <mxCell id="0" />
        <mxCell id="1" parent="0" />
        <mxCell id="XGt-CP-2qPnRzY_03cpw-6" value="" style="rounded=1;whiteSpace=wrap;html=1;fillColor=#cce5ff;strokeColor=#36393d;" parent="1" vertex="1">
          <mxGeometry x="270" y="380" width="270" height="100" as="geometry" />
        </mxCell>
        <mxCell id="XGt-CP-2qPnRzY_03cpw-5" value="" style="rounded=1;whiteSpace=wrap;html=1;fillColor=#eeeeee;strokeColor=#36393d;" parent="1" vertex="1">
          <mxGeometry x="270" y="200" width="270" height="100" as="geometry" />
        </mxCell>
        <mxCell id="XGt-CP-2qPnRzY_03cpw-2" value="" style="rounded=1;whiteSpace=wrap;html=1;fillColor=#e1d5e7;strokeColor=#9673a6;" parent="1" vertex="1">
          <mxGeometry x="-20" y="190" width="180" height="300" as="geometry" />
        </mxCell>
        <mxCell id="XGt-CP-2qPnRzY_03cpw-3" value=".NET Standard Library" style="text;html=1;strokeColor=none;fillColor=none;align=center;verticalAlign=middle;whiteSpace=wrap;rounded=0;" parent="1" vertex="1">
          <mxGeometry y="490" width="140" height="30" as="geometry" />
        </mxCell>
        <mxCell id="XGt-CP-2qPnRzY_03cpw-18" style="rounded=0;orthogonalLoop=1;jettySize=auto;html=1;exitX=1;exitY=0.5;exitDx=0;exitDy=0;entryX=0;entryY=0.5;entryDx=0;entryDy=0;" parent="1" source="XGt-CP-2qPnRzY_03cpw-4" target="XGt-CP-2qPnRzY_03cpw-8" edge="1">
          <mxGeometry relative="1" as="geometry" />
        </mxCell>
        <mxCell id="XGt-CP-2qPnRzY_03cpw-19" style="rounded=0;orthogonalLoop=1;jettySize=auto;html=1;exitX=1;exitY=0.5;exitDx=0;exitDy=0;entryX=0;entryY=0.5;entryDx=0;entryDy=0;" parent="1" source="XGt-CP-2qPnRzY_03cpw-4" target="XGt-CP-2qPnRzY_03cpw-7" edge="1">
          <mxGeometry relative="1" as="geometry" />
        </mxCell>
        <mxCell id="XGt-CP-2qPnRzY_03cpw-4" value="App" style="shape=process;whiteSpace=wrap;html=1;backgroundOutline=1;" parent="1" vertex="1">
          <mxGeometry x="10" y="310" width="120" height="60" as="geometry" />
        </mxCell>
        <mxCell id="XGt-CP-2qPnRzY_03cpw-14" style="rounded=0;orthogonalLoop=1;jettySize=auto;html=1;exitX=1;exitY=0.5;exitDx=0;exitDy=0;entryX=0.036;entryY=0.554;entryDx=0;entryDy=0;entryPerimeter=0;" parent="1" source="XGt-CP-2qPnRzY_03cpw-5" target="XGt-CP-2qPnRzY_03cpw-13" edge="1">
          <mxGeometry relative="1" as="geometry" />
        </mxCell>
        <mxCell id="XGt-CP-2qPnRzY_03cpw-15" style="rounded=0;orthogonalLoop=1;jettySize=auto;html=1;exitX=1;exitY=0.5;exitDx=0;exitDy=0;entryX=-0.021;entryY=0.404;entryDx=0;entryDy=0;entryPerimeter=0;" parent="1" source="XGt-CP-2qPnRzY_03cpw-6" target="XGt-CP-2qPnRzY_03cpw-20" edge="1">
          <mxGeometry relative="1" as="geometry">
            <mxPoint x="688.96" y="446.05999999999995" as="targetPoint" />
          </mxGeometry>
        </mxCell>
        <mxCell id="XGt-CP-2qPnRzY_03cpw-7" value="Xamarin Forms Startup" style="rounded=0;whiteSpace=wrap;html=1;" parent="1" vertex="1">
          <mxGeometry x="280" y="390" width="250" height="30" as="geometry" />
        </mxCell>
        <mxCell id="XGt-CP-2qPnRzY_03cpw-8" value="Xamarin Forms Startup" style="rounded=0;whiteSpace=wrap;html=1;" parent="1" vertex="1">
          <mxGeometry x="280" y="210" width="250" height="30" as="geometry" />
        </mxCell>
        <mxCell id="XGt-CP-2qPnRzY_03cpw-13" value="" style="verticalLabelPosition=bottom;verticalAlign=top;html=1;shadow=0;dashed=0;strokeWidth=1;shape=mxgraph.android.phone2;strokeColor=#314354;fillColor=#647687;fontColor=#ffffff;" parent="1" vertex="1">
          <mxGeometry x="680" y="70" width="140" height="260" as="geometry" />
        </mxCell>
        <mxCell id="XGt-CP-2qPnRzY_03cpw-16" value="Android" style="text;html=1;strokeColor=none;fillColor=none;align=center;verticalAlign=middle;whiteSpace=wrap;rounded=0;" parent="1" vertex="1">
          <mxGeometry x="570" y="200" width="60" height="30" as="geometry" />
        </mxCell>
        <mxCell id="XGt-CP-2qPnRzY_03cpw-17" value="iOS" style="text;html=1;strokeColor=none;fillColor=none;align=center;verticalAlign=middle;whiteSpace=wrap;rounded=0;" parent="1" vertex="1">
          <mxGeometry x="580" y="410" width="60" height="30" as="geometry" />
        </mxCell>
        <mxCell id="XGt-CP-2qPnRzY_03cpw-20" value="" style="html=1;verticalLabelPosition=bottom;labelBackgroundColor=#ffffff;verticalAlign=top;shadow=0;dashed=0;strokeWidth=1;shape=mxgraph.ios7.misc.iphone;strokeColor=#36393d;fillColor=#cce5ff;" parent="1" vertex="1">
          <mxGeometry x="680" y="350" width="140" height="250" as="geometry" />
        </mxCell>
      </root>
    </mxGraphModel>
  </diagram>
  <diagram id="tjTztco6qvKjOrCcjrXl" name="Page-7">
    <mxGraphModel dx="1839" dy="521" grid="1" gridSize="10" guides="1" tooltips="1" connect="1" arrows="1" fold="1" page="1" pageScale="1" pageWidth="850" pageHeight="1100" math="0" shadow="0">
      <root>
        <mxCell id="0" />
        <mxCell id="1" parent="0" />
        <mxCell id="bGHCucOC6zccciqN1tmP-3" value="Objeto" style="rounded=0;whiteSpace=wrap;html=1;fillColor=#ffe6cc;strokeColor=#d79b00;verticalAlign=top;" parent="1" vertex="1">
          <mxGeometry x="580" y="300" width="210" height="130" as="geometry" />
        </mxCell>
        <mxCell id="bGHCucOC6zccciqN1tmP-2" value="Propiedad" style="rounded=0;whiteSpace=wrap;html=1;fillColor=#dae8fc;strokeColor=#6c8ebf;" parent="1" vertex="1">
          <mxGeometry x="610" y="370" width="180" height="60" as="geometry" />
        </mxCell>
        <mxCell id="bGHCucOC6zccciqN1tmP-4" value="Objeto Fuente" style="text;html=1;strokeColor=none;fillColor=none;align=center;verticalAlign=middle;whiteSpace=wrap;rounded=0;fontStyle=1" parent="1" vertex="1">
          <mxGeometry x="632.5" y="250" width="105" height="30" as="geometry" />
        </mxCell>
        <mxCell id="bGHCucOC6zccciqN1tmP-5" value="Control" style="rounded=0;whiteSpace=wrap;html=1;fillColor=#ffe6cc;strokeColor=#d79b00;verticalAlign=top;" parent="1" vertex="1">
          <mxGeometry x="-130" y="300" width="210" height="130" as="geometry" />
        </mxCell>
        <mxCell id="bGHCucOC6zccciqN1tmP-6" value="Propiedad" style="rounded=0;whiteSpace=wrap;html=1;fillColor=#dae8fc;strokeColor=#6c8ebf;" parent="1" vertex="1">
          <mxGeometry x="-130" y="370" width="180" height="60" as="geometry" />
        </mxCell>
        <mxCell id="bGHCucOC6zccciqN1tmP-7" value="Control UI" style="text;html=1;strokeColor=none;fillColor=none;align=center;verticalAlign=middle;whiteSpace=wrap;rounded=0;fontStyle=1" parent="1" vertex="1">
          <mxGeometry x="-77.5" y="250" width="105" height="30" as="geometry" />
        </mxCell>
        <mxCell id="bGHCucOC6zccciqN1tmP-8" value="" style="rounded=1;whiteSpace=wrap;html=1;fillColor=#dae8fc;strokeColor=#6c8ebf;" parent="1" vertex="1">
          <mxGeometry x="240" y="250" width="180" height="230" as="geometry" />
        </mxCell>
        <mxCell id="bGHCucOC6zccciqN1tmP-9" value="Data Binding" style="text;html=1;strokeColor=none;fillColor=none;align=center;verticalAlign=middle;whiteSpace=wrap;rounded=0;fontStyle=1" parent="1" vertex="1">
          <mxGeometry x="260" y="280" width="140" height="30" as="geometry" />
        </mxCell>
        <mxCell id="bGHCucOC6zccciqN1tmP-10" value="SincronizaciÃ³n" style="rounded=1;whiteSpace=wrap;html=1;fillColor=#d5e8d4;strokeColor=#82b366;" parent="1" vertex="1">
          <mxGeometry x="270" y="320" width="120" height="40" as="geometry" />
        </mxCell>
        <mxCell id="bGHCucOC6zccciqN1tmP-11" value="" style="shape=flexArrow;endArrow=classic;html=1;rounded=0;" parent="1" edge="1">
          <mxGeometry width="50" height="50" relative="1" as="geometry">
            <mxPoint x="90" y="400" as="sourcePoint" />
            <mxPoint x="220" y="400" as="targetPoint" />
          </mxGeometry>
        </mxCell>
        <mxCell id="bGHCucOC6zccciqN1tmP-12" value="" style="shape=flexArrow;endArrow=classic;html=1;rounded=0;" parent="1" edge="1">
          <mxGeometry width="50" height="50" relative="1" as="geometry">
            <mxPoint x="440" y="400" as="sourcePoint" />
            <mxPoint x="570" y="400" as="targetPoint" />
          </mxGeometry>
        </mxCell>
        <mxCell id="bGHCucOC6zccciqN1tmP-13" value="" style="shape=flexArrow;endArrow=classic;html=1;rounded=0;" parent="1" edge="1">
          <mxGeometry width="50" height="50" relative="1" as="geometry">
            <mxPoint x="220" y="330" as="sourcePoint" />
            <mxPoint x="90" y="330" as="targetPoint" />
          </mxGeometry>
        </mxCell>
        <mxCell id="bGHCucOC6zccciqN1tmP-14" value="" style="shape=flexArrow;endArrow=classic;html=1;rounded=0;" parent="1" edge="1">
          <mxGeometry width="50" height="50" relative="1" as="geometry">
            <mxPoint x="570" y="330" as="sourcePoint" />
            <mxPoint x="440" y="330" as="targetPoint" />
          </mxGeometry>
        </mxCell>
        <mxCell id="bGHCucOC6zccciqN1tmP-15" value="Convertidores" style="rounded=1;whiteSpace=wrap;html=1;fillColor=#e1d5e7;strokeColor=#9673a6;" parent="1" vertex="1">
          <mxGeometry x="270" y="390" width="120" height="60" as="geometry" />
        </mxCell>
      </root>
    </mxGraphModel>
  </diagram>
  <diagram id="dq7pq_o4pQbe_l8Hwhz4" name="Page-8">
    <mxGraphModel dx="2045" dy="630" grid="1" gridSize="10" guides="1" tooltips="1" connect="1" arrows="1" fold="1" page="1" pageScale="1" pageWidth="850" pageHeight="1100" math="0" shadow="0">
      <root>
        <mxCell id="0" />
        <mxCell id="1" parent="0" />
        <mxCell id="GksVGFBrXENVgLFnREpB-4" style="rounded=0;orthogonalLoop=1;jettySize=auto;html=1;exitX=0.5;exitY=1;exitDx=0;exitDy=0;" parent="1" source="GksVGFBrXENVgLFnREpB-1" target="GksVGFBrXENVgLFnREpB-3" edge="1">
          <mxGeometry relative="1" as="geometry" />
        </mxCell>
        <mxCell id="GksVGFBrXENVgLFnREpB-5" style="rounded=0;orthogonalLoop=1;jettySize=auto;html=1;exitX=0.5;exitY=1;exitDx=0;exitDy=0;" parent="1" source="GksVGFBrXENVgLFnREpB-1" target="GksVGFBrXENVgLFnREpB-2" edge="1">
          <mxGeometry relative="1" as="geometry" />
        </mxCell>
        <mxCell id="GksVGFBrXENVgLFnREpB-1" value="StackLayout" style="rounded=0;whiteSpace=wrap;html=1;fillColor=#d5e8d4;strokeColor=#82b366;" parent="1" vertex="1">
          <mxGeometry x="-60" y="180" width="120" height="60" as="geometry" />
        </mxCell>
        <mxCell id="GksVGFBrXENVgLFnREpB-2" value="Entry" style="rounded=0;whiteSpace=wrap;html=1;fillColor=#d5e8d4;strokeColor=#82b366;" parent="1" vertex="1">
          <mxGeometry x="100" y="380" width="120" height="40" as="geometry" />
        </mxCell>
        <mxCell id="GksVGFBrXENVgLFnREpB-3" value="Editor" style="rounded=0;whiteSpace=wrap;html=1;fillColor=#d5e8d4;strokeColor=#82b366;" parent="1" vertex="1">
          <mxGeometry x="-220" y="380" width="120" height="40" as="geometry" />
        </mxCell>
        <mxCell id="GksVGFBrXENVgLFnREpB-6" value="&lt;h1&gt;&lt;span style=&quot;background-color: initial; font-size: 12px; font-weight: normal;&quot;&gt;Text {Binding Name, &lt;i&gt;Source={StaticResource article}&lt;/i&gt;}&lt;/span&gt;&lt;br&gt;&lt;/h1&gt;" style="text;html=1;strokeColor=none;fillColor=none;spacing=5;spacingTop=-20;whiteSpace=wrap;overflow=hidden;rounded=0;" parent="1" vertex="1">
          <mxGeometry x="100" y="420" width="300" height="50" as="geometry" />
        </mxCell>
        <mxCell id="GksVGFBrXENVgLFnREpB-7" value="&lt;h1&gt;&lt;span style=&quot;background-color: initial; font-size: 12px; font-weight: normal;&quot;&gt;Source {Binding ImageUrl, &lt;i&gt;Source={StaticResource article}&lt;/i&gt;}&lt;/span&gt;&lt;br&gt;&lt;/h1&gt;" style="text;html=1;strokeColor=none;fillColor=none;spacing=5;spacingTop=-20;whiteSpace=wrap;overflow=hidden;rounded=0;" parent="1" vertex="1">
          <mxGeometry x="-430" y="420" width="340" height="50" as="geometry" />
        </mxCell>
        <mxCell id="GksVGFBrXENVgLFnREpB-8" value="&lt;h1&gt;&lt;span style=&quot;background-color: initial; font-size: 12px; font-weight: normal;&quot;&gt;BindingContext={Binding Source={StaticResource article}}&lt;/span&gt;&lt;br&gt;&lt;/h1&gt;" style="text;html=1;strokeColor=none;fillColor=none;spacing=5;spacingTop=-20;whiteSpace=wrap;overflow=hidden;rounded=0;" parent="1" vertex="1">
          <mxGeometry x="-400" y="185" width="340" height="50" as="geometry" />
        </mxCell>
      </root>
    </mxGraphModel>
  </diagram>
  <diagram id="_KB9_cIPllDiYgwmxN0_" name="Page-9">
    <mxGraphModel dx="1434" dy="756" grid="1" gridSize="10" guides="1" tooltips="1" connect="1" arrows="1" fold="1" page="1" pageScale="1" pageWidth="850" pageHeight="1100" math="0" shadow="0">
      <root>
        <mxCell id="0" />
        <mxCell id="1" parent="0" />
        <mxCell id="g1WLZcXwya7A2JLL1ZIu-1" value="Page" style="rounded=0;whiteSpace=wrap;html=1;" parent="1" vertex="1">
          <mxGeometry x="160" y="220" width="120" height="60" as="geometry" />
        </mxCell>
        <mxCell id="g1WLZcXwya7A2JLL1ZIu-10" style="edgeStyle=orthogonalEdgeStyle;rounded=0;orthogonalLoop=1;jettySize=auto;html=1;exitX=1;exitY=0.5;exitDx=0;exitDy=0;entryX=1;entryY=0.5;entryDx=0;entryDy=0;" parent="1" source="g1WLZcXwya7A2JLL1ZIu-2" target="g1WLZcXwya7A2JLL1ZIu-1" edge="1">
          <mxGeometry relative="1" as="geometry" />
        </mxCell>
        <mxCell id="g1WLZcXwya7A2JLL1ZIu-2" value="..." style="rounded=0;whiteSpace=wrap;html=1;" parent="1" vertex="1">
          <mxGeometry x="200" y="290" width="120" height="60" as="geometry" />
        </mxCell>
        <mxCell id="g1WLZcXwya7A2JLL1ZIu-9" style="edgeStyle=orthogonalEdgeStyle;rounded=0;orthogonalLoop=1;jettySize=auto;html=1;exitX=1;exitY=0.5;exitDx=0;exitDy=0;entryX=1;entryY=0.5;entryDx=0;entryDy=0;" parent="1" source="g1WLZcXwya7A2JLL1ZIu-3" target="g1WLZcXwya7A2JLL1ZIu-2" edge="1">
          <mxGeometry relative="1" as="geometry" />
        </mxCell>
        <mxCell id="g1WLZcXwya7A2JLL1ZIu-3" value="Grid" style="rounded=0;whiteSpace=wrap;html=1;" parent="1" vertex="1">
          <mxGeometry x="260" y="360" width="120" height="60" as="geometry" />
        </mxCell>
        <mxCell id="g1WLZcXwya7A2JLL1ZIu-8" style="edgeStyle=orthogonalEdgeStyle;rounded=0;orthogonalLoop=1;jettySize=auto;html=1;exitX=1;exitY=0.5;exitDx=0;exitDy=0;entryX=1;entryY=0.5;entryDx=0;entryDy=0;" parent="1" source="g1WLZcXwya7A2JLL1ZIu-4" target="g1WLZcXwya7A2JLL1ZIu-3" edge="1">
          <mxGeometry relative="1" as="geometry" />
        </mxCell>
        <mxCell id="g1WLZcXwya7A2JLL1ZIu-4" value="StackLayout" style="rounded=0;whiteSpace=wrap;html=1;" parent="1" vertex="1">
          <mxGeometry x="310" y="430" width="120" height="60" as="geometry" />
        </mxCell>
        <mxCell id="g1WLZcXwya7A2JLL1ZIu-7" style="edgeStyle=orthogonalEdgeStyle;rounded=0;orthogonalLoop=1;jettySize=auto;html=1;exitX=1;exitY=0.5;exitDx=0;exitDy=0;entryX=1;entryY=0.5;entryDx=0;entryDy=0;" parent="1" source="g1WLZcXwya7A2JLL1ZIu-5" target="g1WLZcXwya7A2JLL1ZIu-4" edge="1">
          <mxGeometry relative="1" as="geometry" />
        </mxCell>
        <mxCell id="g1WLZcXwya7A2JLL1ZIu-5" value="Entry" style="rounded=0;whiteSpace=wrap;html=1;" parent="1" vertex="1">
          <mxGeometry x="350" y="500" width="120" height="60" as="geometry" />
        </mxCell>
        <mxCell id="g1WLZcXwya7A2JLL1ZIu-11" value="DataContext ?" style="text;html=1;strokeColor=none;fillColor=none;align=center;verticalAlign=middle;whiteSpace=wrap;rounded=0;" parent="1" vertex="1">
          <mxGeometry x="490" y="480" width="110" height="30" as="geometry" />
        </mxCell>
        <mxCell id="g1WLZcXwya7A2JLL1ZIu-12" value="DataContext ?" style="text;html=1;strokeColor=none;fillColor=none;align=center;verticalAlign=middle;whiteSpace=wrap;rounded=0;" parent="1" vertex="1">
          <mxGeometry x="450" y="410" width="110" height="30" as="geometry" />
        </mxCell>
        <mxCell id="g1WLZcXwya7A2JLL1ZIu-13" value="DataContext ?" style="text;html=1;strokeColor=none;fillColor=none;align=center;verticalAlign=middle;whiteSpace=wrap;rounded=0;" parent="1" vertex="1">
          <mxGeometry x="400" y="340" width="110" height="30" as="geometry" />
        </mxCell>
        <mxCell id="g1WLZcXwya7A2JLL1ZIu-14" value="DataContext ?" style="text;html=1;strokeColor=none;fillColor=none;align=center;verticalAlign=middle;whiteSpace=wrap;rounded=0;" parent="1" vertex="1">
          <mxGeometry x="355" y="270" width="110" height="30" as="geometry" />
        </mxCell>
        <mxCell id="OeuTxL3GZ5w2G05cV36V-1" value="" style="whiteSpace=wrap;html=1;aspect=fixed;" vertex="1" parent="1">
          <mxGeometry x="1010" y="200" width="500" height="500" as="geometry" />
        </mxCell>
        <mxCell id="OeuTxL3GZ5w2G05cV36V-2" value="DataType" style="text;html=1;strokeColor=none;fillColor=none;align=center;verticalAlign=middle;whiteSpace=wrap;rounded=0;" vertex="1" parent="1">
          <mxGeometry x="1040" y="230" width="60" height="30" as="geometry" />
        </mxCell>
        <mxCell id="OeuTxL3GZ5w2G05cV36V-3" value="" style="whiteSpace=wrap;html=1;aspect=fixed;fillColor=#dae8fc;strokeColor=#6c8ebf;" vertex="1" parent="1">
          <mxGeometry x="1120" y="300" width="180" height="180" as="geometry" />
        </mxCell>
        <mxCell id="OeuTxL3GZ5w2G05cV36V-4" value="DataType2" style="text;html=1;strokeColor=none;fillColor=none;align=center;verticalAlign=middle;whiteSpace=wrap;rounded=0;" vertex="1" parent="1">
          <mxGeometry x="1140" y="320" width="60" height="30" as="geometry" />
        </mxCell>
        <mxCell id="OeuTxL3GZ5w2G05cV36V-5" value="DataType.Prop" style="text;html=1;strokeColor=none;fillColor=none;align=center;verticalAlign=middle;whiteSpace=wrap;rounded=0;" vertex="1" parent="1">
          <mxGeometry x="1140" y="400" width="140" height="30" as="geometry" />
        </mxCell>
        <mxCell id="OeuTxL3GZ5w2G05cV36V-6" value="" style="whiteSpace=wrap;html=1;aspect=fixed;fillColor=#ffe6cc;strokeColor=#d79b00;" vertex="1" parent="1">
          <mxGeometry x="1120" y="510" width="180" height="180" as="geometry" />
        </mxCell>
      </root>
    </mxGraphModel>
  </diagram>
  <diagram id="WO6vXgk48gDH8IgWtW3S" name="Page-10">
    <mxGraphModel dx="2284" dy="756" grid="1" gridSize="10" guides="1" tooltips="1" connect="1" arrows="1" fold="1" page="1" pageScale="1" pageWidth="850" pageHeight="1100" math="0" shadow="0">
      <root>
        <mxCell id="0" />
        <mxCell id="1" parent="0" />
        <mxCell id="bDHSGADlD-9hUNV23xsf-5" style="rounded=0;orthogonalLoop=1;jettySize=auto;html=1;exitX=1;exitY=0.25;exitDx=0;exitDy=0;entryX=0;entryY=0.25;entryDx=0;entryDy=0;" edge="1" parent="1" source="bDHSGADlD-9hUNV23xsf-1" target="bDHSGADlD-9hUNV23xsf-4">
          <mxGeometry relative="1" as="geometry" />
        </mxCell>
        <mxCell id="bDHSGADlD-9hUNV23xsf-8" style="edgeStyle=orthogonalEdgeStyle;rounded=0;orthogonalLoop=1;jettySize=auto;html=1;exitX=0.5;exitY=1;exitDx=0;exitDy=0;entryX=0.5;entryY=1;entryDx=0;entryDy=0;curved=1;" edge="1" parent="1" source="bDHSGADlD-9hUNV23xsf-1" target="bDHSGADlD-9hUNV23xsf-2">
          <mxGeometry relative="1" as="geometry">
            <Array as="points">
              <mxPoint x="445" y="470" />
              <mxPoint x="25" y="470" />
            </Array>
          </mxGeometry>
        </mxCell>
        <mxCell id="bDHSGADlD-9hUNV23xsf-9" value="ChangeNotification" style="edgeLabel;html=1;align=center;verticalAlign=middle;resizable=0;points=[];" vertex="1" connectable="0" parent="bDHSGADlD-9hUNV23xsf-8">
          <mxGeometry x="0.1051" relative="1" as="geometry">
            <mxPoint x="8" as="offset" />
          </mxGeometry>
        </mxCell>
        <mxCell id="bDHSGADlD-9hUNV23xsf-1" value="ViewModel" style="whiteSpace=wrap;html=1;aspect=fixed;" vertex="1" parent="1">
          <mxGeometry x="370" y="230" width="150" height="150" as="geometry" />
        </mxCell>
        <mxCell id="bDHSGADlD-9hUNV23xsf-7" style="rounded=0;orthogonalLoop=1;jettySize=auto;html=1;exitX=1;exitY=0.25;exitDx=0;exitDy=0;entryX=0;entryY=0.25;entryDx=0;entryDy=0;" edge="1" parent="1" source="bDHSGADlD-9hUNV23xsf-2" target="bDHSGADlD-9hUNV23xsf-1">
          <mxGeometry relative="1" as="geometry" />
        </mxCell>
        <mxCell id="bDHSGADlD-9hUNV23xsf-10" value="Data Binding" style="edgeLabel;html=1;align=center;verticalAlign=middle;resizable=0;points=[];" vertex="1" connectable="0" parent="bDHSGADlD-9hUNV23xsf-7">
          <mxGeometry x="-0.1314" y="-1" relative="1" as="geometry">
            <mxPoint as="offset" />
          </mxGeometry>
        </mxCell>
        <mxCell id="bDHSGADlD-9hUNV23xsf-2" value="View" style="whiteSpace=wrap;html=1;aspect=fixed;" vertex="1" parent="1">
          <mxGeometry x="-50" y="240" width="150" height="150" as="geometry" />
        </mxCell>
        <mxCell id="bDHSGADlD-9hUNV23xsf-6" style="rounded=0;orthogonalLoop=1;jettySize=auto;html=1;exitX=0;exitY=0.75;exitDx=0;exitDy=0;entryX=1;entryY=0.75;entryDx=0;entryDy=0;" edge="1" parent="1" source="bDHSGADlD-9hUNV23xsf-4" target="bDHSGADlD-9hUNV23xsf-1">
          <mxGeometry relative="1" as="geometry" />
        </mxCell>
        <mxCell id="bDHSGADlD-9hUNV23xsf-4" value="Model&lt;br&gt;(Repository)" style="whiteSpace=wrap;html=1;aspect=fixed;" vertex="1" parent="1">
          <mxGeometry x="810" y="240" width="130" height="130" as="geometry" />
        </mxCell>
      </root>
    </mxGraphModel>
  </diagram>
  <diagram id="leI8Byo569HPQetdmrfc" name="Page-11">
    <mxGraphModel dx="2284" dy="756" grid="1" gridSize="10" guides="1" tooltips="1" connect="1" arrows="1" fold="1" page="1" pageScale="1" pageWidth="850" pageHeight="1100" math="0" shadow="0">
      <root>
        <mxCell id="0" />
        <mxCell id="1" parent="0" />
        <mxCell id="j8g5uZq4r3HtGnlYwzOf-1" value="ViewModel Locator" style="rounded=0;whiteSpace=wrap;html=1;" vertex="1" parent="1">
          <mxGeometry x="400" y="190" width="120" height="410" as="geometry" />
        </mxCell>
        <mxCell id="j8g5uZq4r3HtGnlYwzOf-6" style="rounded=0;orthogonalLoop=1;jettySize=auto;html=1;exitX=1;exitY=0.5;exitDx=0;exitDy=0;entryX=0;entryY=0.5;entryDx=0;entryDy=0;" edge="1" parent="1" source="j8g5uZq4r3HtGnlYwzOf-2" target="j8g5uZq4r3HtGnlYwzOf-1">
          <mxGeometry relative="1" as="geometry" />
        </mxCell>
        <mxCell id="j8g5uZq4r3HtGnlYwzOf-2" value="View 1" style="rounded=0;whiteSpace=wrap;html=1;" vertex="1" parent="1">
          <mxGeometry x="-20" y="170" width="120" height="60" as="geometry" />
        </mxCell>
        <mxCell id="j8g5uZq4r3HtGnlYwzOf-7" style="rounded=0;orthogonalLoop=1;jettySize=auto;html=1;exitX=1;exitY=0.5;exitDx=0;exitDy=0;entryX=0;entryY=0.5;entryDx=0;entryDy=0;" edge="1" parent="1" source="j8g5uZq4r3HtGnlYwzOf-3" target="j8g5uZq4r3HtGnlYwzOf-1">
          <mxGeometry relative="1" as="geometry" />
        </mxCell>
        <mxCell id="j8g5uZq4r3HtGnlYwzOf-3" value="View 2" style="rounded=0;whiteSpace=wrap;html=1;" vertex="1" parent="1">
          <mxGeometry x="-20" y="310" width="120" height="60" as="geometry" />
        </mxCell>
        <mxCell id="j8g5uZq4r3HtGnlYwzOf-8" style="rounded=0;orthogonalLoop=1;jettySize=auto;html=1;exitX=1;exitY=0.5;exitDx=0;exitDy=0;entryX=0;entryY=0.5;entryDx=0;entryDy=0;" edge="1" parent="1" source="j8g5uZq4r3HtGnlYwzOf-4" target="j8g5uZq4r3HtGnlYwzOf-1">
          <mxGeometry relative="1" as="geometry" />
        </mxCell>
        <mxCell id="j8g5uZq4r3HtGnlYwzOf-4" value="View ...." style="rounded=0;whiteSpace=wrap;html=1;" vertex="1" parent="1">
          <mxGeometry x="-20" y="450" width="120" height="60" as="geometry" />
        </mxCell>
        <mxCell id="j8g5uZq4r3HtGnlYwzOf-9" style="rounded=0;orthogonalLoop=1;jettySize=auto;html=1;exitX=1;exitY=0.5;exitDx=0;exitDy=0;entryX=0;entryY=0.5;entryDx=0;entryDy=0;" edge="1" parent="1" source="j8g5uZq4r3HtGnlYwzOf-5" target="j8g5uZq4r3HtGnlYwzOf-1">
          <mxGeometry relative="1" as="geometry" />
        </mxCell>
        <mxCell id="j8g5uZq4r3HtGnlYwzOf-5" value="View N" style="rounded=0;whiteSpace=wrap;html=1;" vertex="1" parent="1">
          <mxGeometry x="-20" y="580" width="120" height="60" as="geometry" />
        </mxCell>
        <mxCell id="j8g5uZq4r3HtGnlYwzOf-10" value="ViewModel 1" style="rounded=0;whiteSpace=wrap;html=1;" vertex="1" parent="1">
          <mxGeometry x="740" y="170" width="120" height="60" as="geometry" />
        </mxCell>
        <mxCell id="j8g5uZq4r3HtGnlYwzOf-16" style="rounded=0;orthogonalLoop=1;jettySize=auto;html=1;exitX=0;exitY=0.5;exitDx=0;exitDy=0;entryX=1;entryY=0.5;entryDx=0;entryDy=0;" edge="1" parent="1" source="j8g5uZq4r3HtGnlYwzOf-11" target="j8g5uZq4r3HtGnlYwzOf-1">
          <mxGeometry relative="1" as="geometry" />
        </mxCell>
        <mxCell id="j8g5uZq4r3HtGnlYwzOf-11" value="ViewModel 2" style="rounded=0;whiteSpace=wrap;html=1;" vertex="1" parent="1">
          <mxGeometry x="740" y="310" width="120" height="60" as="geometry" />
        </mxCell>
        <mxCell id="j8g5uZq4r3HtGnlYwzOf-17" style="rounded=0;orthogonalLoop=1;jettySize=auto;html=1;exitX=0;exitY=0.5;exitDx=0;exitDy=0;" edge="1" parent="1" source="j8g5uZq4r3HtGnlYwzOf-12">
          <mxGeometry relative="1" as="geometry">
            <mxPoint x="520" y="390" as="targetPoint" />
          </mxGeometry>
        </mxCell>
        <mxCell id="j8g5uZq4r3HtGnlYwzOf-12" value="ViewModel ...." style="rounded=0;whiteSpace=wrap;html=1;" vertex="1" parent="1">
          <mxGeometry x="740" y="450" width="120" height="60" as="geometry" />
        </mxCell>
        <mxCell id="j8g5uZq4r3HtGnlYwzOf-18" style="rounded=0;orthogonalLoop=1;jettySize=auto;html=1;exitX=0;exitY=0.5;exitDx=0;exitDy=0;" edge="1" parent="1" source="j8g5uZq4r3HtGnlYwzOf-13">
          <mxGeometry relative="1" as="geometry">
            <mxPoint x="520" y="390" as="targetPoint" />
          </mxGeometry>
        </mxCell>
        <mxCell id="j8g5uZq4r3HtGnlYwzOf-13" value="ViewModel N" style="rounded=0;whiteSpace=wrap;html=1;" vertex="1" parent="1">
          <mxGeometry x="740" y="580" width="120" height="60" as="geometry" />
        </mxCell>
        <mxCell id="j8g5uZq4r3HtGnlYwzOf-15" style="rounded=0;orthogonalLoop=1;jettySize=auto;html=1;exitX=0;exitY=0.5;exitDx=0;exitDy=0;entryX=1;entryY=0.5;entryDx=0;entryDy=0;" edge="1" parent="1" source="j8g5uZq4r3HtGnlYwzOf-10" target="j8g5uZq4r3HtGnlYwzOf-1">
          <mxGeometry relative="1" as="geometry">
            <mxPoint x="110" y="210" as="sourcePoint" />
            <mxPoint x="410" y="405" as="targetPoint" />
          </mxGeometry>
        </mxCell>
      </root>
    </mxGraphModel>
  </diagram>
</mxfile>
